<?xml version="1.0" ?><svg viewBox="0 0 64 64" xmlns="http://www.w3.org/2000/svg"><defs><style>.cls-1{fill:#ffef52;}.cls-2{fill:#52bdff;}.cls-3{fill:#ff5272;}.cls-4{fill:#52ffaa;}.cls-5{fill:#f3f9ff;}.cls-6{fill:#e64a68;}.cls-7{fill:#e6d74a;}.cls-8{fill:#17e198;}.cls-9{fill:#4aaae6;}.cls-10{fill:#1b212d;}</style></defs><g id="Windmill"><path class="cls-1" d="M34.93,23.82l6.38-6.38L27.87,4,12.2,6.94,29.07,23.82Z" id="rect7300-5"/><path class="cls-2" d="M34.93,29.67l6.38,6.38L54.74,22.62,51.8,6.94,34.93,23.82Z" id="path7312-6"/><path class="cls-3" d="M29.07,29.67l-6.38,6.38L36.13,49.49l15.67-3L34.93,29.67Z" id="path7316-1"/><path class="cls-4" d="M29.07,23.82l-6.38-6.38L9.26,30.87,12.2,46.54,29.07,29.67Z" id="path7320-1"/><path class="cls-5" d="M30.07,43.44V58.07a1.93,1.93,0,0,0,3.86,0V47.29Z" id="rect7344-5"/><path class="cls-6" d="M30.93,29.67,47.8,46.54,35.49,48.85l.64.64,15.67-3L34.93,29.67Z" id="path9641"/><path class="cls-7" d="M27.87,4l-3.36.63,12.8,12.81-6.38,6.38h4l6.38-6.38Z" id="path9621"/><path class="cls-8" d="M22.69,17.44l-2,2,4.38,4.38v5.85L11.57,43.18l.63,3.36L29.07,29.67V23.82Z" id="path9653"/><path class="cls-9" d="M51.8,7l-3.37,3.36,2.31,12.31L39.31,34.05l2,2L54.74,22.62Z" id="path9643"/><circle class="cls-5" cx="32" cy="26.74" id="path7298-8" r="4.59"/><path class="cls-10" d="M55.73,22.43,52.78,6.76a1,1,0,0,0-1.69-.52L41.31,16,28.58,3.29A1,1,0,0,0,27.69,3L12,6a1,1,0,0,0-.53,1.69l9.79,9.79L8.55,30.16a1.1,1.1,0,0,0-.28.9l3,15.67a1,1,0,0,0,1.69.52l9.78-9.78,6.38,6.38V58.07a2.93,2.93,0,0,0,5.86,0V49.7l.5.5a1,1,0,0,0,.88.27L52,47.53a1,1,0,0,0,.77-.69,1,1,0,0,0-.24-1l-9.79-9.79L55.45,23.32A1,1,0,0,0,55.73,22.43ZM14.25,7.58,26.94,5.19l1,16.06Zm8.44,11.27,5.22,5.22a4.9,4.9,0,0,0-.35,4.69l-15.73.95ZM22,35.34h0L12.83,44.5,10.45,31.8l16.05-1-.78.78Zm11,22.73a.93.93,0,0,1-1.86,0V45.85l1.86,1.85Zm-8.82-22,3.24-3.24,2-2a4.86,4.86,0,0,0,4.7.34L35,46.91ZM30,24.7a2.87,2.87,0,0,1,4.08,0,2.89,2.89,0,1,1-4.08,0Zm4.72-2.05A4.83,4.83,0,0,0,30,22.3L29,6.57,39.89,17.44ZM49.75,45.91,37.06,48.3l-1-16.06ZM41.31,34.64l-5.22-5.22a4.9,4.9,0,0,0,.35-4.69l15.73-.95Zm-3.81-12L51.17,9l2.38,12.7Z"/></g></svg>